<svg width="261" height="241" viewBox="0 0 261 241" fill="none" xmlns="http://www.w3.org/2000/svg">
<path d="M136.577 235.296C112.889 238.514 88.7756 234.461 67.4708 223.682C46.1661 212.902 28.6898 195.912 17.3851 174.992C6.08058 154.071 1.48814 130.22 4.22335 106.637C6.95857 83.0543 16.8908 60.8671 32.6885 43.0517C48.4863 25.2362 69.3942 12.6446 92.6081 6.96671C115.822 1.28882 140.231 2.79647 162.561 11.2873C184.89 19.7781 204.072 34.8457 217.533 54.4681C230.994 74.0904 238.091 97.3291 237.873 121.067" stroke="white" stroke-width="1.5"/>
<path d="M155.355 235.472C131.667 238.69 107.553 234.637 86.2487 223.858C64.944 213.078 47.4676 196.088 36.163 175.168C24.8584 154.247 20.266 130.396 23.0012 106.813C25.7364 83.2303 35.6686 61.0431 51.4663 43.2277C67.2641 25.4123 88.172 12.8206 111.386 7.14274C134.6 1.46485 159.009 2.9725 181.338 11.4633C203.668 19.9541 222.849 35.0217 236.311 54.6441C249.772 74.2664 256.869 97.5052 256.651 121.243" stroke="#B67D3B" stroke-width="1.5"/>
</svg>
