<svg width="285" height="269" viewBox="0 0 285 269" fill="none" xmlns="http://www.w3.org/2000/svg">
<path d="M134.117 249.255C110.412 249.501 87.198 242.492 67.59 229.168C47.982 215.844 32.9172 196.843 24.4164 174.713C15.9157 152.583 14.3855 128.383 20.0312 105.358C25.6768 82.334 38.2283 61.5866 56.0019 45.8993C73.7756 30.2119 95.9214 20.3348 119.469 17.5929C143.016 14.851 166.839 19.3754 187.742 30.5592C208.644 41.743 225.627 59.0513 236.412 80.1625C247.197 101.274 251.268 125.178 248.079 148.669" stroke="#1E1E1E" stroke-width="0.905405"/>
<path d="M152.522 251.753C128.817 251.999 105.604 244.99 85.9957 231.666C66.3877 218.342 51.323 199.341 42.8222 177.211C34.3215 155.081 32.7913 130.881 38.4369 107.857C44.0826 84.8323 56.634 64.0849 74.4077 48.3976C92.1814 32.7102 114.327 22.8331 137.875 20.0912C161.422 17.3493 185.245 21.8737 206.147 33.0575C227.05 44.2413 244.033 61.5496 254.818 82.6608C265.602 103.772 269.674 127.676 266.485 151.167" stroke="#DCB168" stroke-width="0.905405"/>
</svg>
