<svg width="909" height="917" viewBox="0 0 909 917" fill="none" xmlns="http://www.w3.org/2000/svg">
<path d="M566.756 791.415C501.209 822.279 427.812 832.514 356.411 820.747C285.01 808.98 219.021 775.774 167.295 725.586C115.57 675.397 80.5797 610.625 67.0182 539.958C53.4567 469.291 61.972 396.108 91.4233 330.224C120.875 264.34 169.854 208.907 231.792 171.361C293.73 133.816 365.664 115.954 437.943 120.173C510.223 124.391 579.39 150.487 636.168 194.959C692.946 239.431 734.62 300.152 755.6 368.977" stroke="white" stroke-width="2.55554"/>
<path d="M609.246 763.464C543.698 794.329 470.301 804.564 398.9 792.797C327.5 781.03 261.511 747.824 209.785 697.635C158.059 647.446 123.069 582.674 109.508 512.007C95.9464 441.341 104.462 368.157 133.913 302.273C163.364 236.39 212.344 180.956 274.282 143.411C336.22 105.865 408.153 88.0038 480.433 92.2222C552.713 96.4405 621.88 122.537 678.658 167.009C735.436 211.481 777.109 272.202 798.09 341.026" stroke="#DCB168" stroke-width="2.55554"/>
</svg>
