<svg width="108" height="99" viewBox="0 0 108 99" fill="none" xmlns="http://www.w3.org/2000/svg">
<path d="M56.2776 96.955C46.5169 98.2808 36.5807 96.6107 27.802 92.169C19.0233 87.7274 11.822 80.7266 7.16392 72.1061C2.50581 63.4857 0.613474 53.6576 1.74053 43.9403C2.8676 34.2229 6.96021 25.0805 13.4697 17.7396C19.9793 10.3987 28.5945 5.21022 38.1599 2.87062C47.7254 0.531017 57.7832 1.15225 66.9842 4.65094C76.1852 8.14962 84.089 14.3583 89.6357 22.4438C95.1824 30.5292 98.1069 40.1049 98.0171 49.8863" stroke="white" stroke-width="0.618082"/>
<path d="M64.0149 97.0275C54.2542 98.3533 44.318 96.6832 35.5393 92.2416C26.7606 87.7999 19.5593 80.7991 14.9012 72.1786C10.2431 63.5582 8.35078 53.7301 9.47784 44.0128C10.6049 34.2954 14.6975 25.153 21.207 17.8121C27.7166 10.4712 36.3318 5.28273 45.8972 2.94313C55.4627 0.603526 65.5205 1.22476 74.7215 4.72345C83.9225 8.22213 91.8263 14.4308 97.373 22.5163C102.92 30.6018 105.844 40.1774 105.754 49.9588" stroke="#FFA000" stroke-width="0.618082"/>
</svg>
