<svg width="893" height="915" viewBox="0 0 893 915" fill="none" xmlns="http://www.w3.org/2000/svg">
<path d="M124.272 364.761C138.472 298.307 172.527 237.714 221.87 191.11C271.212 144.505 333.481 114.118 400.323 104.024C467.164 93.9294 535.383 104.61 595.828 134.632C656.273 164.654 706.055 212.582 738.496 271.989C770.938 331.396 784.486 399.441 777.323 466.996C770.16 534.551 742.627 598.384 698.419 649.933C654.211 701.481 595.443 738.279 529.998 755.392C464.554 772.504 395.562 769.113 332.277 745.675" stroke="#B67D3B" stroke-width="2.39693"/>
<path d="M120.996 412.35C135.196 345.897 169.252 285.304 218.595 238.699C267.937 192.094 330.206 161.708 397.047 151.613C463.889 141.519 532.107 152.199 592.552 182.221C652.997 212.243 702.78 260.171 735.221 319.578C767.662 378.985 781.211 447.03 774.047 514.585C766.884 582.14 739.352 645.973 695.144 697.522C650.936 749.071 592.168 785.869 526.723 802.981C461.278 820.094 392.287 816.703 329.002 793.264" stroke="#B67D3B" stroke-width="2.39693"/>
</svg>
