<svg width="50" height="47" viewBox="0 0 50 47" fill="none" xmlns="http://www.w3.org/2000/svg">
<path d="M23.7976 42.3303C19.839 42.3714 15.9625 41.2009 12.688 38.9759C9.41362 36.751 6.89789 33.5779 5.47831 29.8823C4.05874 26.1867 3.80321 22.1454 4.746 18.3005C5.68879 14.4555 7.78481 10.9909 10.7529 8.37116C13.721 5.75146 17.4192 4.10204 21.3515 3.64416C25.2838 3.18627 29.262 3.94182 32.7526 5.80945C36.2433 7.67708 39.0793 10.5675 40.8803 14.0929C42.6813 17.6184 43.3612 21.6103 42.8287 25.5331" stroke="#B15F00" stroke-width="1.38958"/>
<path d="M26.9705 42.7608C23.0118 42.8018 19.1353 41.6314 15.8609 39.4064C12.5865 37.1814 10.0707 34.0083 8.65117 30.3127C7.23159 26.6172 6.97606 22.5759 7.91885 18.7309C8.86164 14.886 10.9577 11.4213 13.9258 8.80158C16.8939 6.18188 20.5921 4.53246 24.5243 4.07458C28.4566 3.61669 32.4349 4.37224 35.9255 6.23987C39.4161 8.1075 42.2521 10.9979 44.0531 14.5233C45.8542 18.0488 46.534 22.0407 46.0016 25.9635" stroke="black" stroke-width="1.38958"/>
</svg>
