<svg width="91" height="85" viewBox="0 0 91 85" fill="none" xmlns="http://www.w3.org/2000/svg">
<path d="M48.5006 82.4918C40.2791 83.7963 31.8553 82.5555 24.3591 78.9358C16.8629 75.3161 10.6528 69.4906 6.56196 62.2408C2.47107 54.991 0.694992 46.6636 1.47196 38.3756C2.24892 30.0875 5.54177 22.2353 10.9088 15.8721C16.2758 9.50892 23.4604 4.93914 31.4987 2.77573C39.5371 0.612316 48.0447 0.958747 55.8806 3.76855C63.7164 6.57835 70.5056 11.7171 75.3375 18.4956C80.1694 25.2741 82.813 33.3681 82.9135 41.6918" stroke="#4E3000" stroke-width="1.58195"/>
<path d="M55.1227 82.4117C46.9012 83.7162 38.4773 82.4754 30.9811 78.8557C23.485 75.236 17.2749 69.4106 13.184 62.1608C9.09314 54.9109 7.31706 46.5835 8.09403 38.2955C8.87099 30.0074 12.1638 22.1552 17.5309 15.792C22.8979 9.42884 30.0825 4.85906 38.1208 2.69565C46.1591 0.532238 54.6668 0.878668 62.5026 3.68847C70.3385 6.49827 77.1277 11.6371 81.9596 18.4155C86.7915 25.194 89.435 33.288 89.5356 41.6118" stroke="#DCB168" stroke-width="1.58195"/>
</svg>
