<svg width="57" height="58" viewBox="0 0 57 58" fill="none" xmlns="http://www.w3.org/2000/svg">
<path d="M45.298 37.3998C43.7419 40.9903 41.1314 44.0244 37.8169 46.0952C34.5024 48.166 30.6427 49.1743 26.7557 48.9854C22.8688 48.7966 19.1402 47.4196 16.0698 45.0395C12.9995 42.6594 10.7337 39.3896 9.57693 35.6683C8.42012 31.947 8.42757 27.9521 9.59888 24.2196C10.7702 20.4871 13.0492 17.1959 16.1301 14.7876C19.211 12.3794 22.946 10.9694 26.834 10.7464C30.7219 10.5233 34.5769 11.4977 37.8822 13.5385" stroke="#B67D3B" stroke-width="0.873037"/>
<path d="M46.0383 34.6996C44.4822 38.2901 41.8716 41.3242 38.5571 43.395C35.2426 45.4658 31.3829 46.4741 27.496 46.2852C23.609 46.0964 19.8804 44.7194 16.8101 42.3393C13.7397 39.9592 11.474 36.6894 10.3172 32.9681C9.16035 29.2468 9.16781 25.2519 10.3391 21.5194C11.5104 17.7869 13.7895 14.4957 16.8703 12.0875C19.9512 9.6792 23.6863 8.26925 27.5742 8.04617C31.4621 7.82309 35.3171 8.79748 38.6224 10.8383" stroke="#B67D3B" stroke-width="0.873037"/>
</svg>
