<svg width="52" height="45" viewBox="0 0 52 45" fill="none" xmlns="http://www.w3.org/2000/svg">
<path d="M32.2556 23.3333C32.6461 22.9427 32.6461 22.3096 32.2556 21.9191L25.8915 15.5553C25.5009 15.1647 24.8678 15.1648 24.4773 15.5553C24.0867 15.9458 24.0868 16.579 24.4773 16.9695L30.1343 22.6262L24.4776 28.2832C24.0871 28.6737 24.0871 29.3069 24.4776 29.6974C24.8681 30.0879 25.5013 30.0879 25.8918 29.6974L32.2556 23.3333ZM0.000220307 23.6269L31.5485 23.6262L31.5485 21.6262L0.000172858 21.6269L0.000220307 23.6269Z" fill="white"/>
<path d="M12.6929 17.88C13.7533 13.8701 16.2246 10.3772 19.653 8.04274C23.0815 5.70828 27.237 4.68892 31.3565 5.17183C35.4761 5.65473 39.2832 7.60749 42.0788 10.6715C44.8744 13.7356 46.4709 17.7053 46.5752 21.8518C46.6794 25.9982 45.2844 30.0431 42.6462 33.2438C40.0081 36.4444 36.3039 38.586 32.2138 39.2753C28.1237 39.9645 23.9222 39.1552 20.3808 36.996C16.8394 34.8367 14.1958 31.4725 12.9353 27.5209" stroke="white" stroke-width="2"/>
</svg>
